name processed_emg_signals
nRows=14
nColumns=35
 
endheader
time	FP1_FX	FP1_FY	FP1_FZ	FP1_MX	FP1_MY	FP1_MZ	FP2_FX12	FP2_FX34	FP2_FY14	FP2_FY23	FP2_FZ1	FP2_FZ2	FP2_FZ3	FP2_FZ4	FP3_FX12	FP3_FX34	FP3_FY14	FP3_FY23	FP3_FZ1	FP3_FZ2	FP3_FZ3	FP3_FZ4	LGLTMED	LRF	LADDLONG	LST	LTA	LGM	RGLTMED	RRF	RADDLONG	RST	RTA	RGM
0.07778799999999991	-0.3089951351284981	-0.2403295366093516	-0.3013656241819262	-0.3166246460750699	-0.1106278505176305	-0.0572212738916277	-2.0540987335445493	0.0195631464250567	-3.000809781426028	1.0394966017308604	0.9139525098737522	0.755004352735682	-0.4371068257998445	0.6755302741666469	-18.90002487507036	-38.73364243808555	-5.157453768502194	4.370372801520489	17.415400176613275	-80.50220094101496	-74.86664994399143	34.47858032680779	0.009613181464374	-0.0050354795530438	-0.0352483429014682	-0.0025940360501408	0.0053406553342938	0.0102235423400998	-0.0083924643695354	-0.02029450237751	-0.0071717426180839	0.0059510162100195	0.0035095727071166	-0.028534373268485
0.07878799999999991	-0.3318836679682135	-0.2555885585024953	-0.3242541570216417	-0.354772200807929	-0.0648507848381996	-0.0648507848381996	-1.9367216459991	-0.0195625494234263	-3.079262332555288	1.0394966017308604	0.2781598813214714	0.4371080384595416	-0.9934253757830902	0.5165821170285767	-20.55974273298375	-39.39752715006216	-6.690191000543962	2.216255685710422	17.72848698007965	-83.71132777800267	-78.85849474509268	36.12227887914924	0.0093080010265111	-0.0193789601325988	-0.0083924643695354	-0.0071717426180839	-0.0102235469967126	0.0019836705178022	-0.0215152241289615	-0.0288395546376705	-0.0215152241289615	0.0016784900799393	-0.0074769230559468	0.0233463011682033
0.07978799999999991	-0.3166246460750699	-0.2250705147162079	-0.2784770913422107	-0.3089951351284981	-0.1182573614642024	-0.1029983395710587	-1.662841775059718	0.1760659298189892	-3.393072537072328	1.3533068062479003	0.2781598813214714	0.2781598813214714	-0.4371068257998445	0.2781598813214714	-22.592895234886328	-40.26888140600568	-7.891526066158917	0.1035636510764703	18.19811622983161	-87.70317257910392	-81.75454051129964	37.68771098558591	0.009613181464374	0.0352483391761779	0.0080872792750597	0.0016784900799393	-0.0193789601325988	0.0041199335828423	-0.0028992164880037	-0.046540018171072	0.0306706316769123	-0.004425118677318	0.0019836705178022	0.0465400144457817
0.08078799999999992	-0.3242541570216417	-0.2327000256627798	-0.3395131789147854	-0.3013656241819262	-0.0343327410519123	-0.1029983395710587	-1.8193445584536505	0.4108201049098881	-2.9615836255686645	1.1571754284247504	0.6755302741666469	-0.4371068257998445	-0.5960549829379147	0.6755302741666469	-25.331428788747644	-41.38918938995448	-9.424263298200684	-2.257680387632064	18.902558193564342	-91.3819286658436	-86.45082536523842	38.940054377661	0.0086976401507854	-0.0190737806260585	0.0050354748964309	0.0138857075944542	0.0257877446711063	0.0108339032158255	-0.0163271557539701	0.004730294458568	-0.0190737806260585	0.0065613770857453	0.0068665575236082	0.0010681292042136
0.08178799999999992	-0.2555885585024953	-0.2098114928230643	-0.2784770913422107	-0.3013656241819262	-0.0877393176779151	-0.1029983395710587	-1.8193445584536505	0.2934430173644387	-3.079262332555288	1.4317593573771603	0.6755302741666469	0.6755302741666469	-0.83447721864502	0.6755302741666469	-27.32308900264934	-42.34352416991851	-10.252769472776665	-4.121820544609591	19.920086960763456	-94.35624469974572	-90.12958909555891	40.97511191205922	0.0053406553342938	-0.0172426961362361	-0.0273136515170335	-0.0041199382394552	-0.0181582383811473	0.0050354748964309	-0.0083924643695354	0.004730294458568	-0.0193789601325988	0.0032043922692537	-0.0041199382394552	0.0041199335828423
0.08278799999999992	-0.2784770913422107	-0.2479590475559234	-0.2784770913422107	-0.3013656241819262	-0.0724802957847714	-0.0953688286244869	-1.8193445584536505	-0.0586882452719095	-3.000809781426028	1.0787228772954904	0.5165821170285767	0.1986858027524363	-0.5960549829379147	0.9139525098737522	-29.3977337925528	-43.58831306985121	-11.495529745985891	-6.2345127056617	20.389716210515417	-98.42635976854216	-93.88661544999376	43.166709981847816	0.0080872792750597	0.0010681292042136	-0.0090028252452611	0.0022888509556651	-0.006866562180221	0.0065613770857453	-0.0019836751744151	-0.0398260504007339	0.0004577683284878	-0.0083924643695354	-0.0041199382394552	-0.0010681338608264
0.08378799999999992	-0.3700312227010727	-0.2250705147162079	-0.2861066022887826	-0.4081787541508674	-0.1029983395710587	-0.0343327410519123	-1.8584702543021336	0.4890714966068543	-3.2753938300857044	1.3533068062479003	-0.3576327472308094	0.1192117241834012	-0.5165809043688796	1.549745138426033	-31.67984407444192	-44.83310196978391	-12.90399084957221	-8.181503024991457	20.702803013981796	-101.55722398141552	-97.0957499305623	44.18424257083734	0.0102235423400998	-0.0126649904996156	0.0129701662808656	0.0093080010265111	-0.0047302991151809	0.0056458357721567	-0.0083924643695354	-0.0114442687481641	0.0041199335828423	0.0025940313935279	-0.0160219743847847	0.0108339032158255
0.08478799999999992	-0.2174410037696361	-0.2174410037696361	-0.2784770913422107	-0.3700312227010727	-0.0572212738916277	-0.0572212738916277	-1.9367216459991	0.6455742800007869	-3.667656346317472	1.3533068062479003	-0.5960549829379147	0.1986858027524363	-0.9139512972140552	0.755004352735682	-34.25240645030908	-45.91191766573184	-14.395303379692336	-10.33562089931047	21.09416008514336	-105.78387958560234	-100.6962357496068	45.20177133803645	0.0080872792750597	-0.0041199382394552	0.028839549049735	-0.026092929765582	-0.0108339078724384	0.0025940313935279	-0.025177389383316	0.0004577683284878	0.0056458357721567	0.0038147531449794	0.0038147531449794	0.0184634141623973
0.08578799999999992	-0.3089951351284981	-0.2098114928230643	-0.3166246460750699	-0.3013656241819262	-0.1182573614642024	-0.0572212738916277	-1.701967470908201	0.6455742800007869	-3.628430190460108	1.6671170107649402	0.2781598813214714	-0.5960549829379147	-0.7550031400759849	1.2318488241498926	-36.74198019819323	-47.40566029366983	-15.679488354823206	-12.696864305928216	21.56378742400011	-109.462635672342	-103.8270923188993	47.39336940782505	0.009613181464374	-0.0126649904996156	0.0215152185410261	-0.0083924643695354	-0.0209048613905906	0.0053406553342938	-0.0257877483963966	-0.0358587056398391	-0.0132753513753414	-0.0041199382394552	0.0102235423400998	-0.0123598100617527
0.08678799999999992	-0.3776607336476445	-0.2174410037696361	-0.3242541570216417	-0.3242541570216417	-0.1564049161970615	-0.0877393176779151	-2.1714759404903248	0.7238256716977531	-3.824561448575992	1.3533068062479003	0.2781598813214714	0.2781598813214714	-1.0728994543521253	1.1523747455808575	-39.23155799805863	-48.857914685588185	-17.212226598210236	-15.30666098080212	22.111688852342468	-113.21966967035767	-107.74066685230537	49.35015667452808	0.0102235423400998	-0.009308005683124	0.0062561966478824	0.0025940313935279	-0.0193789601325988	0.0016784900799393	-0.0221255831420421	-0.0160219743847847	-0.0114442687481641	-0.0007629534229636	0.0093080010265111	-0.034332800656557
0.08778799999999992	-0.3089951351284981	-0.2327000256627798	-0.3013656241819262	-0.3242541570216417	-0.1411458943039178	-0.003814697265625	-2.1714759404903248	0.2543173215159555	-3.510751244058952	1.3533068062479003	0.6755302741666469	0.3576339598905065	-0.83447721864502	1.470271059856998	-41.92859723792844	-50.102703585520885	-18.66211341506346	-17.792180515875316	23.207489798131974	-116.27225597195502	-111.73251165340662	50.83731469147915	0.004730294458568	-0.0120546296238899	-0.0172426961362361	0.0297550894320011	0.0004577683284878	0.0126649858430027	-0.0212100427597761	-0.0163271557539701	-0.0166323371231555	0.0117494445294141	-0.0019836751744151	0.0123598054051399
0.08878799999999992	-0.2479590475559234	-0.2937361132353544	-0.3242541570216417	-0.3471426898613572	-0.0572212738916277	-0.0495917629450559	-2.1714759404903248	0.4499458007583712	-3.510751244058952	1.6278907352003102	0.5165821170285767	0.1986858027524363	-1.3113216900592306	1.470271059856998	-44.7501133418009	-51.26450385747057	-20.52625331920467	-20.69195414958176	23.207489798131974	-120.73373002280825	-115.80262672220306	52.63755760100139	0.0126649858430027	-0.0077821034938097	-0.0355535224080085	-0.0404364094138145	-0.0126649904996156	0.0035095727071166	-0.026092929765582	-0.0236514862626791	-0.0074769230559468	0.000152587890625	0.0099183619022369	0.0965896099805831
0.08978799999999992	-0.2937361132353544	-0.2174410037696361	-0.3471426898613572	-0.3471426898613572	-0.0801098067313432	-0.0953688286244869	-2.0932243099927064	0.097814538122023	-3.667656346317472	1.5886644596356805	0.3576339598905065	1.8676414527021732	-1.0728994543521253	0.755004352735682	-47.73760670163938	-52.63376962140592	-22.63894548025678	-23.67457718713149	23.677117136988727	-125.430014876747	-119.24657200585716	55.14224438515157	0.0056458357721567	-0.0102235469967126	-0.0279240123927593	0.018158234655857	-0.0468451976776123	0.0062561966478824	-0.0062562013044953	-0.055390253663063	0.0267032869160175	-0.0041199382394552	-0.0013733142986893	-0.0187685992568731
0.09078799999999992	-0.2021819818764925	1.2474250979721546	-1.1329823173582554	-0.7896543480455875	0.8354315534234047	0.5683986470103264	-2.249727093386639	0.6455742800007869	-3.785335292718628	1.7063432863295702	0.1192117241834012	0.5960561955976118	-0.9934253757830902	0.6755302741666469	-50.51763051751095	-54.41796636931258	-24.544510086319637	-26.90575450428264	24.225018565331084	-129.57840021323864	-123.86458659210076	56.86421702697862	0.0080872792750597	0.0053406553342938	-0.0062562013044953	-0.0209048613905906	-0.0025940360501408	0.000152587890625	-0.0007629534229636	0.0154116097837686	-0.0172426961362361	-0.0007629534229636	-0.0013733142986893	0.0187685936689376
